# AST/ASF file generated using VICON BodyLanguage
# -----------------------------------------------
:version 1.10
:name VICON
:units
  mass 1.0
  length 0.45
  angle deg
:documentation
   .ast/.asf automatically generated from VICON data using
   VICON BodyBuilder and BodyLanguage model FoxedUp or BRILLIANT.MOD
:root
   order TX TY TZ RX RY RZ
   axis XYZ
   position 0 0 0  
   orientation 0 0 0 
:bonedata
  begin
     id 1 
     name lhipjoint
     direction 0.756833 -0.6125 0.228138 
     length 2.53827 
     axis 0 0 0  XYZ
  end
  begin
     id 2 
     name lfemur
     direction 0.34202 -0.939693 0  
     length 6.51821  
     axis 0 0 20  XYZ
    dof rx ry rz
    limits (-160.0 20.0)
           (-70.0 70.0)
           (-60.0 70.0)
  end
  begin
     id 3 
     name ltibia
     direction 0.34202 -0.939693 0   
     length 6.99902   
     axis 0 0 20   XYZ
    dof rx
    limits (-10.0 170.0)
  end
  begin
     id 4 
     name lfoot
     direction 0.0951515 -0.261427 0.960522   
     length 1.92102   
     axis -90 7.62852e-016 20   XYZ
    dof rx rz
    limits (-45.0 90.0)
           (-70.0 20.0)
  end
  begin
     id 5 
     name ltoes
     direction 1.53539e-011 -4.21781e-011 1   
     length 0.964376   
     axis -90 7.62852e-016 20   XYZ
    dof rx
    limits (-90.0 20.0)
  end
  begin
     id 6 
     name rhipjoint
     direction -0.752153 -0.617542 0.230017   
     length 2.51754  
     axis 0 0 0  XYZ 
  end
  begin
     id 7 
     name rfemur
     direction -0.34202 -0.939693 0   
     length 6.82377   
     axis 0 0 -20   XYZ
    dof rx ry rz
    limits (-160.0 20.0)
           (-70.0 70.0)
           (-70.0 60.0)
  end
  begin
     id 8 
     name rtibia
     direction -0.34202 -0.939693 0   
     length 6.98689   
     axis 0 0 -20   XYZ
    dof rx
    limits (-10.0 170.0)
 end
 begin
     id 9 
     name rfoot
     direction -0.0900426 -0.24739 0.964723   
     length 2.03215  
     axis -90 -7.62852e-016 -20   XYZ
    dof rx rz
    limits (-45.0 90.0)
           (-20.0 70.0)
  end
  begin
     id 10 
     name rtoes
     direction -1.53466e-011 -4.22206e-011 1   
     length 1.0197   
     axis -90 -7.62852e-016 -20   XYZ
    dof rx
    limits (-90.0 20.0)
  end
  begin
     id 11 
     name lowerback
     direction 0.0184183 0.995705 -0.0907278   
     length 2.019   
     axis 0 0 0   XYZ
    dof rx ry rz
    limits (-20.0 45.0)
           (-30.0 30.0)
           (-30.0 30.0)
  end
  begin
     id 12 
     name upperback
     direction 0.00281055 0.998777 0.0493607   
     length 1.99623   
     axis 0 0 0   XYZ
    dof rx ry rz
    limits (-20.0 45.0)
           (-30.0 30.0)
           (-30.0 30.0)
  end
  begin
     id 13 
     name thorax
     direction -0.00665507 0.995706 0.092331   
     length 2.02811   
     axis 0 0 0   XYZ
    dof rx ry rz
    limits (-20.0 45.0)
           (-30.0 30.0)
           (-30.0 30.0)
  end
  begin
     id 14 
     name lowerneck
     direction -0.0960965 0.994358 0.0449225   
     length 1.71265   
     axis 0 0 0   XYZ
    dof rx ry rz
    limits (-20.0 45.0)
           (-30.0 30.0)
           (-30.0 30.0)
  end
  begin
     id 15 
     name upperneck
     direction 0.13642 0.985357 -0.102278   
     length 1.73016   
     axis 0 0 0   XYZ
    dof rx ry rz
    limits (-20.0 45.0)
           (-30.0 30.0)
           (-30.0 30.0)
  end
  begin
     id 16
     name head
     direction 0.0556079 0.997632 -0.040479  
     length 1.74275  
     axis 0 0 0   XYZ
    dof rx ry rz
    limits (-20.0 45.0)
           (-30.0 30.0)
           (-30.0 30.0)
  end
  begin
     id 17 
     name lclavicle
     direction 0.90877 0.417247 -0.00652364  
     length 3.25514  
     axis 0 0 0   XYZ
    dof ry rz
    limits (-20.0 10.0)
           (0.0 20.0)
  end
  begin
     id 18 
     name lhumerus
     direction 1 -4.48949e-011 8.31417e-028   
     length 4.84834   
     axis 180 -30 -90   XYZ
    dof rx ry rz
    limits (-60.0 90.0)
           (-90.0 90.0)
           (-90.0 90.0)
  end
  begin
     id 19
     name lradius
     direction 1 -4.48984e-011 3.45616e-027   
     length 2.99713   
     axis 180 -30 -90   XYZ
    dof rx
    limits (-10.0 170.0)
  end
  begin
     id 20
     name lwrist
     direction 1 -4.4891e-011 4.0479e-027   
     length 1.49857   
     axis -1.61768e-015 90 90   XYZ
    dof ry
    limits (-180.0 0.0)
 end
  begin
     id 21 
     name lhand
     direction 1 -4.49025e-011 8.0958e-027   
     length 0.693987   
     axis -5.16581e-015 90 90   XYZ
    dof rx rz
    limits (-90.0 90.0)
           (-45.0 45.0)
  end
  begin
     id 22 
     name lfingers
     direction 1 -4.4888e-011 1.61916e-026   
     length 0.55951   
     axis -1.03316e-014 90 90   XYZ
    dof rx
    limits (0.0 90.0)
  end
  begin
     id 23
     name lthumb
     direction 0.707107 -6.3493e-011 0.707107   
     length 0.803348   
     axis -90 45 2.85299e-015   XYZ
    dof rx rz
    limits (-45.0 45.0)
           (-45.0 45.0)
  end
  begin
     id 24 
     name rclavicle
     direction -0.906655 0.41906 0.0486307   
     length 3.3311  
     axis 0 0 0   XYZ 
    dof ry rz
    limits (-10.0 20.0)
           (-20.0 0.0)
  end
  begin
     id 25 
     name rhumerus
     direction -1 -4.48959e-011 6.37764e-018  
     length 4.93457   
     axis 180 30 90   XYZ
    dof rx ry rz
    limits (-90.0 60.0)
           (-90.0 90.0)
           (-90.0 90.0)
  end
  begin
     id 26 
     name rradius
     direction -1 -4.48957e-011 2.20847e-027   
     length 3.3443   
     axis 180 30 90   XYZ
    dof rx
    limits (-10.0 170.0)
  end
  begin
     id 27 
     name rwrist
     direction -1 -4.49008e-011 4.0479e-027   
     length 1.67215   
     axis -1.61768e-015 -90 -90   XYZ
    dof ry
    limits (-180.0 0.0)
  end
  begin
     id 28
     name rhand
     direction -1 -4.49013e-011 8.0958e-027   
     length 0.677363   
     axis -5.16581e-015 -90 -90   XYZ
    dof rx rz
    limits (-90.0 90.0)
           (-45.0 45.0)
  end
  begin
     id 29
     name rfingers
     direction -1 -4.48832e-011 1.61916e-026   
     length 0.546107   
     axis -1.03316e-014 -90 -90   XYZ
    dof rx
    limits (0.0 90.0)
  end
  begin
     id 30
     name rthumb
     direction -0.707107 -6.34895e-011 0.707107   
     length 0.784104   
     axis -90 -45 -2.85299e-015   XYZ
    dof rx rz
    limits (-45.0 45.0)
           (-45.0 45.0)
  end
:hierarchy
  begin
    root lhipjoint rhipjoint lowerback
    lhipjoint lfemur
    lfemur ltibia
    ltibia lfoot
    lfoot ltoes
    rhipjoint rfemur
    rfemur rtibia
    rtibia rfoot
    rfoot rtoes
    lowerback upperback
    upperback thorax
    thorax lowerneck lclavicle rclavicle
    lowerneck upperneck
    upperneck head
    lclavicle lhumerus
    lhumerus lradius
    lradius lwrist
    lwrist lhand lthumb
    lhand lfingers
    rclavicle rhumerus
    rhumerus rradius
    rradius rwrist
    rwrist rhand rthumb
    rhand rfingers
  end

#!OML:ASF H:\Terrain\Patient Classification 1\junglegym\FridayTest\junglegym.ASF
:FULLY-SPECIFIED
:DEGREES
792
root 15.0923 16.6695 3.36091 243.91 -84.5712 -223.042
lowerback 17.1121 0.18778 -3.31845
upperback 3.44191 -0.55423 -0.373868
thorax -5.87533 -0.296344 1.61409
lowerneck -2.54335 0.622918 -12.6227
upperneck 24.4224 -1.76437 13.767
head 8.023 -1.07515 6.72898
rclavicle 2.78299e-015 6.95746e-016
rhumerus -84.0969 3.4729 -91.5565
rradius 22.1545
rwrist -0.946962
rhand 15.996 20.7064
rfingers 7.12502
rthumb 40.7884 -4.27689
lclavicle 2.78299e-015 6.95746e-016
lhumerus -83.7295 0.533621 59.7809
lradius 14.9566
lwrist -37.7694
lhand 29.2934 33.5126
lfingers 7.12502
lthumb 53.0705 52.9602
rfemur -41.3523 4.68691 15.6189
rtibia 33.5976
rfoot -35.0098 -10.1284
rtoes 27.8903
lfemur -29.9886 -0.885824 -24.9267
ltibia 43.0563
lfoot -15.4654 12.4683
ltoes -26.3189
793
root 15.1461 16.6613 3.40645 240.844 -85.9683 -220.553
lowerback 17.3316 -0.214744 -1.96913
upperback 3.42156 -0.818459 0.0034927
thorax -6.01515 -0.441106 1.31044
lowerneck -2.51338 0.643249 -12.5497
upperneck 24.2741 -1.73143 13.772
head 7.96208 -1.05272 6.71221
rclavicle 2.15681e-014 2.03754e-014
rhumerus -83.6577 3.99242 -90.0854
rradius 21.3219
rwrist -0.327386
rhand 16.6951 24.4051
rfingers 7.12502
rthumb 41.4448 -0.368212
lclavicle 2.15681e-014 2.03754e-014
lhumerus -84.1062 0.457348 60.2262
lradius 15.003
lwrist -37.8221
lhand 28.8382 34.6399
lfingers 7.12502
lthumb 52.6595 54.3455
rfemur -40.794 5.32779 16.114
rtibia 34.233
rfoot -37.3541 -2.85437
rtoes 46.8984
lfemur -27.7751 -1.02022 -23.5322
ltibia 40.9905
lfoot -14.9097 12.1964
ltoes -26.7665
794
root 15.1878 16.6286 3.44674 235.631 -86.8387 -215.736
lowerback 17.2985 -0.325127 -1.27673
upperback 3.42505 -0.809191 0.405477
thorax -5.99708 -0.445528 1.3426
lowerneck -2.56627 0.546551 -12.7369
upperneck 23.9987 -1.80097 13.8061
head 7.89249 -1.08841 6.7426
rclavicle -7.35503e-015 -8.34896e-015
rhumerus -82.842 4.22603 -87.9889
rradius 20.1657
rwrist 0.940754
rhand 17.0183 28.2385
rfingers 7.12502
rthumb 41.7479 3.56461
lclavicle -7.35503e-015 -8.34896e-015
lhumerus -83.8761 0.834794 59.0112
lradius 14.6971
lwrist -40.1521
lhand 28.7222 34.7853
lfingers 7.12502
lthumb 52.5545 54.5557
rfemur -40.7531 4.14731 17.8771
rtibia 34.2726
rfoot -34.3248 -13.1383
rtoes 18.5423
lfemur -25.9295 -1.32113 -22.5338
ltibia 39.2147
lfoot -14.5634 12.2455
ltoes -26.9907
795
root 15.2285 16.6476 3.46816 229.418 -87.4805 -210.082
lowerback 17.3397 -0.342374 -0.660717
upperback 3.41985 -0.710702 0.570441
thorax -6.03285 -0.407049 1.14737
lowerneck -2.32064 0.43508 -12.7035
upperneck 23.6236 -2.02346 14.164
head 7.75327 -1.16552 6.8322
rclavicle 3.37934e-015 5.96354e-016
rhumerus -81.8439 3.634 -84.6169
rradius 18.8422
rwrist 3.26358
rhand 11.2988 14.5163
rfingers 7.12502
rthumb 36.3571 -11.7117
lclavicle 3.37934e-015 5.96354e-016
lhumerus -83.3666 0.770355 57.6806
lradius 14.3177
lwrist -41.7844
lhand 28.8088 33.8657
lfingers 7.12502
lthumb 52.6329 53.5878
rfemur -40.0962 6.48095 16.78
rtibia 34.7778
rfoot -38.1637 0.0614958
rtoes 53.5382
lfemur -23.7223 -1.82805 -21.6701
ltibia 37.0058
lfoot -13.9419 12.4739
ltoes -27.2332
796
root 15.2712 16.6277 3.48955 235.227 -87.3412 -216.025
lowerback 17.1125 -0.361068 -1.5782
upperback 3.19026 -0.87596 0.683545
thorax -6.13637 -0.461978 1.8238
lowerneck -1.95896 0.509044 -12.594
upperneck 23.1487 -1.95927 14.3508
head 7.51708 -1.12036 6.85847
rclavicle 9.64106e-015 1.88845e-014
rhumerus -80.5886 3.53872 -80.5361
rradius 17.7341
rwrist 5.16771
rhand 13.3526 14.2915
rfingers 7.12502
rthumb 38.2988 -11.4258
lclavicle 9.64106e-015 1.88845e-014
lhumerus -83.2633 1.0304 57.2328
lradius 13.9752
lwrist -42.1549
lhand 28.1489 33.4902
lfingers 7.12502
lthumb 52.0353 53.5749
rfemur -40.547 7.4219 15.6679
rtibia 35.7333
rfoot -38.7879 2.21517
rtoes 56.8463
lfemur -21.9182 -2.34881 -21.8782
ltibia 34.4629
lfoot -12.8608 13.0635
ltoes -29.2565
797
root 15.322 16.5754 3.50951 238.663 -86.3695 -219.127
lowerback 16.3973 -0.00163785 -2.82999
upperback 2.98741 -0.605693 0.510367
thorax -5.96514 -0.30282 2.28271
lowerneck -1.99761 0.334097 -13.1249
upperneck 22.7156 -2.18912 14.8862
head 7.41975 -1.22061 7.11533
rclavicle 6.65929e-015 3.57812e-014
rhumerus -79.1144 2.85053 -77.0019
rradius 16.5748
rwrist 7.33856
rhand 14.412 14.5309
rfingers 7.12502
rthumb 39.2979 -10.9031
lclavicle 6.65929e-015 3.57812e-014
lhumerus -82.5187 0.583429 58.8929
lradius 13.8493
lwrist -41.2311
lhand 26.948 33.6714
lfingers 7.12502
lthumb 50.9433 54.3844
rfemur -41.9669 8.22622 14.2184
rtibia 36.7295
rfoot -38.719 1.7952
rtoes 57.1022
lfemur -20.6472 -2.72038 -22.7087
ltibia 31.8664
lfoot -12.2386 14.36
ltoes -33.8398
798
root 15.3768 16.5266 3.5601 238.332 -85.5431 -218.324
lowerback 15.6271 0.275633 -3.21677
upperback 2.72259 -0.283278 0.272253
thorax -5.8461 -0.132066 2.17517
lowerneck -2.13464 0.235224 -13.4321
upperneck 22.6304 -2.349 15.296
head 7.44366 -1.28289 7.30728
rclavicle -1.98785e-015 2.10712e-014
rhumerus -77.9982 2.3625 -74.758
rradius 15.5895
rwrist 10.044
rhand 12.8185 15.1454
rfingers 7.12502
rthumb 37.7944 -10.7094
lclavicle -1.98785e-015 2.10712e-014
lhumerus -81.7642 0.327092 59.6081
lradius 13.9765
lwrist -41.6213
lhand 25.6463 33.4152
lfingers 7.12502
lthumb 49.7538 54.7663
rfemur -43.3882 8.51916 13.1015
rtibia 37.3442
rfoot -38.0149 1.76506
rtoes 57.4743
lfemur -19.8067 -3.38031 -23.3393
ltibia 29.8081
lfoot -13.2184 15.6387
ltoes -35.7099
799
root 15.4176 16.489 3.59124 225.397 -86.1048 -205.206
lowerback 15.0459 0.397642 -2.69196
upperback 2.55212 0.0243799 0.78705
thorax -5.72791 0.0176301 2.35832
lowerneck -2.14871 0.218394 -13.6784
upperneck 22.4152 -2.34887 15.4772
head 7.37774 -1.28391 7.40835
rclavicle 1.25234e-014 2.82274e-014
rhumerus -76.8759 2.37272 -72.7538
rradius 15.0737
rwrist 12.3457
rhand 10.6072 15.3772
rfingers 7.12502
rthumb 35.702 -11.0119
lclavicle 1.25234e-014 2.82274e-014
lhumerus -81.1968 0.857295 59.0388
lradius 14.0785
lwrist -43.1237
lhand 24.1408 33.2494
lfingers 7.12502
lthumb 48.3711 55.2872
rfemur -44.0924 8.8595 14.2685
rtibia 37.5288
rfoot -37.3358 -0.757604
rtoes 55.1981
lfemur -19.0957 -4.07861 -22.1013
ltibia 28.3667
lfoot -14.4967 16.1287
ltoes -34.5239
800
root 15.4536 16.4396 3.62815 212.131 -86.289 -191.843
lowerback 14.7727 0.551277 -2.32837
upperback 2.30289 0.325153 1.17636
thorax -5.86125 0.170097 2.50522
lowerneck -1.90871 0.0818859 -13.6793
upperneck 21.8982 -2.49316 15.477
head 7.19083 -1.35211 7.37511
rclavicle -2.98177e-015 -3.57812e-015
rhumerus -75.5417 1.61057 -69.2166
rradius 14.4362
rwrist 15.5923
rhand 10.1123 15.5481
rfingers 7.12502
rthumb 35.2329 -10.9532
lclavicle -2.98177e-015 -3.57812e-015
lhumerus -80.5139 1.07215 59.3209
lradius 14.0937
lwrist -43.6209
lhand 23.0829 33.2673
lfingers 7.12502
lthumb 47.3954 55.7573
rfemur -45.0484 7.97715 16.2793
rtibia 38.1174
rfoot -34.1214 -11.6341
rtoes 33.5697
lfemur -18.2524 -4.65851 -21.2604
ltibia 26.6223
lfoot -14.7709 16.607
ltoes -34.1547
801
root 15.5149 16.3846 3.64446 215.789 -85.8511 -195.626
lowerback 14.6975 0.830227 -3.38024
upperback 2.2059 0.541821 1.30273
thorax -5.94724 0.303838 3.19522
lowerneck -1.84194 -0.0816262 -13.9692
upperneck 21.3323 -2.66623 15.7422
head 7.02854 -1.4285 7.48881
rclavicle 5.96354e-016 1.43125e-014
rhumerus -73.7939 0.142766 -64.3031
rradius 13.5147
rwrist 20.1926
rhand 10.1535 16.7088
rfingers 7.12502
rthumb 35.2719 -9.7833
lclavicle 5.96354e-016 1.43125e-014
lhumerus -79.4202 1.23358 60.3726
lradius 13.9877
lwrist -43.6819
lhand 21.9907 33.2121
lfingers 7.12502
lthumb 46.3848 56.1447
rfemur -46.0126 8.6376 15.4082
rtibia 39.364
rfoot -34.7561 -10.1872
rtoes 38.8151
lfemur -16.7646 -5.13425 -21.7844
ltibia 23.6354
lfoot -14.8037 16.6987
ltoes -35.8627
802
root 15.6117 16.4006 3.64129 239.69 -84.4028 -219.123
lowerback 14.5748 0.952028 -6.50187
upperback 1.75541 0.203398 0.96337
thorax -6.34277 0.235691 4.6791
lowerneck -1.93232 -0.0490523 -14.5316
upperneck 21.0703 -2.62235 16.2859
head 6.95793 -1.40441 7.77979
rclavicle 1.86858e-014 1.31198e-014
rhumerus -72.1113 -0.801439 -60.3639
rradius 12.7546
rwrist 24.4614
rhand 9.5974 17.1955
rfingers 7.12502
rthumb 34.7444 -9.4199
lclavicle 1.86858e-014 1.31198e-014
lhumerus -78.5983 1.06495 62.7702
lradius 14.1824
lwrist -42.3245
lhand 20.6724 32.8943
lfingers 7.12502
lthumb 45.161 56.3302
rfemur -47.6975 9.55167 11.1329
rtibia 40.57
rfoot -36.6859 -4.42469
rtoes 52.3442
lfemur -16.5522 -5.76916 -24.2914
ltibia 21.2093
lfoot -15.2666 16.6719
ltoes -34.3604
803
root 15.6238 16.4337 3.87251 256.012 -81.4744 -238.052
lowerback 16.9695 0.54595 -6.92232
upperback 2.21897 -0.735221 -0.556492
thorax -7.05924 -0.236787 3.50574
lowerneck -2.12446 0.0426919 -15.0142
upperneck 20.8891 -2.48446 16.7623
head 6.91375 -1.33095 8.04241
rclavicle 8.54774e-015 0
rhumerus -70.4675 -1.48488 -57.8112
rradius 12.3548
rwrist 27.9243
rhand 7.58624 17.3564
rfingers 7.12502
rthumb 32.8335 -9.67874
lclavicle 8.54774e-015 0
lhumerus -77.7732 1.03061 64.6278
lradius 14.6626
lwrist -41.1527
lhand 20.4187 31.4681
lfingers 7.12502
lthumb 44.9249 54.9971
rfemur -45.0195 5.44064 7.96842
rtibia 41.7277
rfoot -35.2126 -1.39542
rtoes 51.8713
lfemur -11.969 -8.09878 -29.4676
ltibia 19.1264
lfoot -16.5666 18.863
ltoes -32.2457
804
root 15.6679 16.4526 3.93196 238.992 -85.4846 -219.977
lowerback 16.0236 0.0903687 -2.38376
upperback 1.75329 -0.353273 0.55598
thorax -7.09896 -0.13594 2.02788
lowerneck -2.23518 -0.0130534 -14.8357
upperneck 20.6451 -2.54692 16.8645
head 6.86545 -1.33202 8.0326
rclavicle -7.95139e-015 -3.02153e-014
rhumerus -69.0632 -2.60527 -55.5001
rradius 12.4829
rwrist 30.5552
rhand 6.73213 17.263
rfingers 7.12502
rthumb 32.0207 -9.93883
lclavicle -7.95139e-015 -3.02153e-014
lhumerus -76.6241 1.45137 64.3882
lradius 14.8286
lwrist -41.725
lhand 19.2198 30.7292
lfingers 7.12502
lthumb 43.8076 54.6835
rfemur -46.0196 6.33551 12.4136
rtibia 41.9084
rfoot -35.4757 -2.4466
rtoes 51.0272
lfemur -12.4329 -8.60796 -24.7008
ltibia 17.6007
lfoot -16.3409 19.2145
ltoes -27.4961
805
root 15.7282 16.4241 3.98535 214.258 -87.0277 -194.639
lowerback 15.3363 -0.144238 0.0622183
upperback 1.55245 -0.20045 0.897226
thorax -6.94801 -0.123222 0.965175
lowerneck -2.30436 -0.133992 -14.0464
upperneck 20.0983 -2.69863 16.8541
head 6.72349 -1.33731 7.85029
rclavicle 1.63003e-014 1.78906e-014
rhumerus -67.6831 -5.14671 -51.7629
rradius 12.7081
rwrist 35.0555
rhand 6.3888 17.8866
rfingers 7.12502
rthumb 31.6937 -9.38031
lclavicle 1.63003e-014 1.78906e-014
lhumerus -74.8219 2.34754 62.6607
lradius 14.5249
lwrist -43.026
lhand 17.4717 30.0621
lfingers 7.12502
lthumb 42.1729 54.5939
rfemur -46.7264 6.40736 14.8314
rtibia 41.5834
rfoot -34.8282 -4.2435
rtoes 48.5773
lfemur -13.292 -8.99933 -22.3909
ltibia 17.625
lfoot -17.2702 19.7608
ltoes -26.2192
